<svg xmlns="http://www.w3.org/2000/svg" width="52.957" height="52.77" viewBox="0 0 52.957 52.77">
  <path id="Path_570" data-name="Path 570" d="M18805.986,14292.77H18762v-43.98h43.988v43.98Zm-22-36.836a14.846,14.846,0,1,0,14.852,14.844A14.856,14.856,0,0,0,18783.99,14255.934Zm0,27.6a12.752,12.752,0,1,1,12.75-12.754A12.766,12.766,0,0,1,18783.99,14283.531Zm-10.1-15.234h0c-.023.34-.039.648-.039.945a10.146,10.146,0,0,0,20.293,0c0-.3-.012-.613-.039-.945h-.789a9.357,9.357,0,0,1-18.633,0Zm41.066-19.375h-8.7V14240h8.7v8.922Z" transform="translate(-18761.998 -14240)" fill="#e61f23"/>
</svg>
